# xmcd CD database file
#
# Track frame offsets:
#	150
#	13769
#	28860
#	44995
#	61723
#	69691
#	87960
#	105515
#	122086
#	135461
#	153016
#
# Disc length: 2286 seconds
#
# Revision: 0
# Processed by: cddbd v1.4PL0 Copyright (c) Steve Scherf et al.
# Submitted via: CDex 1.40Beta8
#
DISCID=8f08ec0b
DTITLE=Mac McAnally - Cuttin' Corners
DYEAR=1980
DGENRE=Country
TTITLE0=It's My Job
TTITLE1=Holdin' On
TTITLE2=Cuttin' Corners
TTITLE3=Miracle
TTITLE4=Second Fiddle
TTITLE5=It's Easy
TTITLE6=Tryin' to Make the Yellow Lights
TTITLE7='Til the New Wears Off
TTITLE8=Party
TTITLE9=California is a Mental State
TTITLE10=Run My Life
EXTD=YEAR: 1980 ID3G: 2
EXTT0=
EXTT1=
EXTT2=
EXTT3=
EXTT4=
EXTT5=
EXTT6=
EXTT7=
EXTT8=
EXTT9=
EXTT10=
PLAYORDER=
